{"title":"The Holocaust","uid":8969809,"size":540424616,"categoryP":"video","categoryS":"movies_dvdr","magnet":"?xt=urn:btih:d301c411971cf69d7b5f81db4eb646d82a9bb81b&amp;dn=The+Holocaust&amp;tr=udp%3A%2F%2Ftracker.openbittorrent.com%3A80&amp;tr=udp%3A%2F%2Fopen.demonii.com%3A1337&amp;tr=udp%3A%2F%2Ftracker.coppersurfer.tk%3A6969&amp;tr=udp%3A%2F%2Fexodus.desync.com%3A6969","seeders":0,"leechers":1,"uploader":null,"files":10,"time":1380313288,"description":"Product Description\nGENOCIDE THE SYSTEMATIC SLAUGHTER OF MILLIONS A series of six programmes from the second world war, depicting Hitler's persecution of the Jewish race throughout Europe and his treatment of prisoners during the horrific events of the Holocaust. Containing much previously unseen footage.\n\nTHESE HISTORICAL DOCUMENTARIES CONTAIN MANY SCENES OF A VIOLENT AND DISTURBING NATURE. \n\nThis box set contains the following six documentaries:\n1.The Holocaust: The Yellow Star - The Persecution Of The Jews 1933-1945\n2.The Holocaust: The Liberation of Auschwitz\n3.The Holocaust: Majdanek - The Notorious Polish Concentration Camp\n4.The Holocaust: Theresienstadt - The Truth Behind The Nazi Deception 1941-1945\n5.The Holocaust: Ravensbruck and Buchenwald\n6.The Holocaust: Dachau and Sachsenhausen\n &lt;a href=&quot;\nhttp://lookpic.com/O/i2/1739/shzISJnp.jpeg&quot; rel=&quot;nofollow&quot; target=&quot;_NEW&quot;&gt;\nhttp://lookpic.com/O/i2/1739/shzISJnp.jpeg&lt;/a&gt;\n\nSCREENS\n                                                                                                          &lt;a href=&quot;\nhttp://img.sharepixon.net/?v=thelibgrg.jpg&quot; rel=&quot;nofollow&quot; target=&quot;_NEW&quot;&gt;\nhttp://img.sharepixon.net/?v=thelibgrg.jpg&lt;/a&gt; &lt;a href=&quot;\nhttp://img.sharepixon.net/?v=thelibviv.jpg&quot; rel=&quot;nofollow&quot; target=&quot;_NEW&quot;&gt;\nhttp://img.sharepixon.net/?v=thelibviv.jpg&lt;/a&gt; &lt;a href=&quot;\nhttp://img.sharepixon.net/?v=thelibece.jpg&quot; rel=&quot;nofollow&quot; target=&quot;_NEW&quot;&gt;\nhttp://img.sharepixon.net/?v=thelibece.jpg&lt;/a&gt; &lt;a href=&quot;\nhttp://img.sharepixon.net/?v=thelibuhu.jpg&quot; rel=&quot;nofollow&quot; target=&quot;_NEW&quot;&gt;\nhttp://img.sharepixon.net/?v=thelibuhu.jpg&lt;/a&gt;\n\nIMDB                           NONE\n\nComplete name          :The HolocaustThe Liberation Of Auschwitz.mp4.dvd rip_Title1.mp4\nFormat                                   : MPEG-4\nFormat profile                           : Base Media\nCodec ID                                 : isom\nFile size                                : 513 MiB\nDuration                                 : 53mn 50s\nOverall bit rate                         : 1 332 Kbps\nMovie name                               : The_Liberation_Of_Auschwitz\nGenre                                    : Documentary_War\nWriting application                      : Lavf54.46.100\n\nID                                       : 1\nFormat                                   : MPEG-4 Visual\nFormat settings, BVOP                    : No\nFormat settings, QPel                    : No\nFormat settings, GMC                     : No warppoints\nFormat settings, Matrix                  : Default (H.263)\nCodec ID                                 : 20\nDuration                                 : 53mn 50s\nBit rate mode                            : Constant\nBit rate                                 : 1 199 Kbps\nWidth                                    : 720 pixels\nHeight                                   : 540 pixels\nDisplay aspect ratio                     : 4:3\nFrame rate mode                          : Constant\nFrame rate                               : 23.976 fps\nColor space                              : YUV\nChroma subsampling                       : 4:2:0\nBit depth                                : 8 bits\nScan type                                : Progressive\nCompression mode                         : Lossy\nBits/(Pixel*Frame)                       : 0.129\nStream size                              : 462 MiB (90%)\nWriting library                          : Lavc54.79.100\n\nID                                       : 2\nFormat                                   : AAC\nFormat/Info                              : Advanced Audio Codec\nFormat profile                           : LC\nCodec ID                                 : 40\nDuration                                 : 53mn 50s\nBit rate mode                            : Constant\nBit rate                                 : 128 Kbps\nChannel(s)                               : 2 channels\nChannel positions                        : Front: L R\nSampling rate                            : 44.1 KHz\nCompression mode                         : Lossy\nStream size                              : 49.3 MiB (10%)","torrent":{"xt":"urn:btih:d301c411971cf69d7b5f81db4eb646d82a9bb81b","amp;dn":"The+Holocaust","amp;tr":["udp%3A%2F%2Ftracker.openbittorrent.com%3A80","udp%3A%2F%2Fopen.demonii.com%3A1337","udp%3A%2F%2Ftracker.coppersurfer.tk%3A6969","udp%3A%2F%2Fexodus.desync.com%3A6969"],"infoHash":"d301c411971cf69d7b5f81db4eb646d82a9bb81b","infoHashBuffer":{"type":"Buffer","data":[211,1,196,17,151,28,246,157,123,95,129,219,78,182,70,216,42,155,184,27]},"announce":[],"urlList":[]}}